G04 EAGLE Gerber RS-274X export*
G75*
%MOMM*%
%FSLAX34Y34*%
%LPD*%
%INBottom Copper*%
%IPPOS*%
%AMOC8*
5,1,8,0,0,1.08239X$1,22.5*%
G01*
%ADD10C,1.524000*%
%ADD11P,1.429621X8X22.500000*%
%ADD12C,2.540000*%
%ADD13C,1.676400*%
%ADD14C,0.762000*%
%ADD15C,0.508000*%


D10*
X546100Y317500D03*
X546100Y342900D03*
X546100Y368300D03*
X609600Y38100D03*
X609600Y63500D03*
X609600Y88900D03*
X609600Y317500D03*
X609600Y342900D03*
X609600Y368300D03*
X546100Y38100D03*
X546100Y63500D03*
X546100Y88900D03*
D11*
X546100Y228600D03*
X596900Y228600D03*
X546100Y177800D03*
X596900Y177800D03*
D12*
X31000Y365000D03*
X96000Y365000D03*
X424700Y365000D03*
X489700Y365000D03*
X234200Y365000D03*
X299200Y365000D03*
D13*
X393700Y322682D02*
X393700Y305918D01*
X368300Y305918D02*
X368300Y322682D01*
X342900Y322682D02*
X342900Y305918D01*
X317500Y305918D02*
X317500Y322682D01*
X292100Y322682D02*
X292100Y305918D01*
X266700Y305918D02*
X266700Y322682D01*
X241300Y322682D02*
X241300Y305918D01*
X215900Y305918D02*
X215900Y322682D01*
X190500Y322682D02*
X190500Y305918D01*
X165100Y305918D02*
X165100Y322682D01*
X139700Y322682D02*
X139700Y305918D01*
X114300Y305918D02*
X114300Y322682D01*
X88900Y322682D02*
X88900Y305918D01*
X63500Y305918D02*
X63500Y322682D01*
X38100Y322682D02*
X38100Y305918D01*
X38100Y43282D02*
X38100Y26518D01*
X63500Y26518D02*
X63500Y43282D01*
X88900Y43282D02*
X88900Y26518D01*
X114300Y26518D02*
X114300Y43282D01*
X139700Y43282D02*
X139700Y26518D01*
X165100Y26518D02*
X165100Y43282D01*
X190500Y43282D02*
X190500Y26518D01*
X215900Y26518D02*
X215900Y43282D01*
X241300Y43282D02*
X241300Y26518D01*
X266700Y26518D02*
X266700Y43282D01*
X292100Y43282D02*
X292100Y26518D01*
X317500Y26518D02*
X317500Y43282D01*
X342900Y43282D02*
X342900Y26518D01*
X368300Y26518D02*
X368300Y43282D01*
X393700Y43282D02*
X393700Y26518D01*
D14*
X38750Y315000D02*
X38750Y333750D01*
X88750Y383750D01*
X530000Y383750D01*
X545000Y368750D01*
X38750Y315000D02*
X38100Y314300D01*
X545000Y368750D02*
X546100Y368300D01*
D15*
X545000Y177500D02*
X458750Y177500D01*
X317500Y36250D01*
X317500Y34900D01*
X545000Y177500D02*
X546100Y177800D01*
D14*
X63750Y38750D02*
X63750Y35000D01*
X63750Y38750D02*
X82500Y57500D01*
X221250Y57500D01*
X241250Y37500D01*
X241250Y35000D01*
X63750Y35000D02*
X63500Y34900D01*
X241250Y35000D02*
X241300Y34900D01*
X546100Y317500D02*
X609600Y317500D01*
X496250Y365000D02*
X489700Y365000D01*
X496250Y365000D02*
X542500Y318750D01*
X546100Y317500D01*
X546250Y45000D02*
X546250Y38750D01*
X546250Y45000D02*
X610000Y108750D01*
X610000Y313750D01*
X546250Y38750D02*
X546100Y38100D01*
X610000Y313750D02*
X609600Y317500D01*
X166250Y318750D02*
X166250Y315000D01*
X166250Y318750D02*
X193750Y346250D01*
X280000Y346250D01*
X298750Y365000D01*
X166250Y315000D02*
X165100Y314300D01*
X298750Y365000D02*
X299200Y365000D01*
D15*
X596250Y177500D02*
X596250Y171250D01*
X558750Y133750D01*
X558750Y76250D01*
X546250Y63750D01*
X596250Y177500D02*
X596900Y177800D01*
X546250Y63750D02*
X546100Y63500D01*
X546250Y342500D02*
X608750Y342500D01*
X609600Y342900D01*
X546250Y342500D02*
X546100Y342900D01*
X236250Y13750D02*
X216250Y33750D01*
X236250Y13750D02*
X246250Y13750D01*
X253750Y21250D01*
X253750Y72500D01*
X25000Y301250D01*
X25000Y360000D01*
X30000Y365000D01*
X215900Y34900D02*
X216250Y33750D01*
X31000Y365000D02*
X30000Y365000D01*
M02*
