G04 EAGLE Gerber RS-274X export*
G75*
%MOMM*%
%FSLAX34Y34*%
%LPD*%
%INTop Copper*%
%IPPOS*%
%AMOC8*
5,1,8,0,0,1.08239X$1,22.5*%
G01*
%ADD10C,1.524000*%
%ADD11P,1.429621X8X22.500000*%
%ADD12C,2.540000*%
%ADD13C,1.676400*%
%ADD14C,0.762000*%
%ADD15C,0.508000*%


D10*
X546100Y317500D03*
X546100Y342900D03*
X546100Y368300D03*
X609600Y38100D03*
X609600Y63500D03*
X609600Y88900D03*
X609600Y317500D03*
X609600Y342900D03*
X609600Y368300D03*
X546100Y38100D03*
X546100Y63500D03*
X546100Y88900D03*
D11*
X546100Y228600D03*
X596900Y228600D03*
X546100Y177800D03*
X596900Y177800D03*
D12*
X31000Y365000D03*
X96000Y365000D03*
X424700Y365000D03*
X489700Y365000D03*
X234200Y365000D03*
X299200Y365000D03*
D13*
X393700Y322682D02*
X393700Y305918D01*
X368300Y305918D02*
X368300Y322682D01*
X342900Y322682D02*
X342900Y305918D01*
X317500Y305918D02*
X317500Y322682D01*
X292100Y322682D02*
X292100Y305918D01*
X266700Y305918D02*
X266700Y322682D01*
X241300Y322682D02*
X241300Y305918D01*
X215900Y305918D02*
X215900Y322682D01*
X190500Y322682D02*
X190500Y305918D01*
X165100Y305918D02*
X165100Y322682D01*
X139700Y322682D02*
X139700Y305918D01*
X114300Y305918D02*
X114300Y322682D01*
X88900Y322682D02*
X88900Y305918D01*
X63500Y305918D02*
X63500Y322682D01*
X38100Y322682D02*
X38100Y305918D01*
X38100Y43282D02*
X38100Y26518D01*
X63500Y26518D02*
X63500Y43282D01*
X88900Y43282D02*
X88900Y26518D01*
X114300Y26518D02*
X114300Y43282D01*
X139700Y43282D02*
X139700Y26518D01*
X165100Y26518D02*
X165100Y43282D01*
X190500Y43282D02*
X190500Y26518D01*
X215900Y26518D02*
X215900Y43282D01*
X241300Y43282D02*
X241300Y26518D01*
X266700Y26518D02*
X266700Y43282D01*
X292100Y43282D02*
X292100Y26518D01*
X317500Y26518D02*
X317500Y43282D01*
X342900Y43282D02*
X342900Y26518D01*
X368300Y26518D02*
X368300Y43282D01*
X393700Y43282D02*
X393700Y26518D01*
D14*
X546250Y88750D02*
X608750Y88750D01*
X546250Y88750D02*
X546100Y88900D01*
X608750Y88750D02*
X609600Y88900D01*
X608750Y368750D02*
X596250Y368750D01*
X546250Y368750D01*
X546100Y368300D01*
X608750Y368750D02*
X609600Y368300D01*
X610000Y298750D02*
X610000Y92500D01*
X610000Y298750D02*
X596250Y312500D01*
X596250Y368750D01*
X610000Y92500D02*
X609600Y88900D01*
D15*
X545000Y227500D02*
X533750Y227500D01*
X343750Y37500D01*
X343750Y35000D01*
X545000Y227500D02*
X546100Y228600D01*
X343750Y35000D02*
X342900Y34900D01*
D14*
X63750Y315000D02*
X63750Y333750D01*
X95000Y365000D01*
X63750Y315000D02*
X63500Y314300D01*
X95000Y365000D02*
X96000Y365000D01*
X165000Y317500D02*
X165000Y315000D01*
X165000Y317500D02*
X120000Y362500D01*
X98750Y362500D01*
X165000Y315000D02*
X165100Y314300D01*
X98750Y362500D02*
X96000Y365000D01*
X367500Y317500D02*
X367500Y315000D01*
X367500Y317500D02*
X320000Y365000D01*
X299200Y365000D01*
X367500Y315000D02*
X368300Y314300D01*
X546250Y38750D02*
X608750Y38750D01*
X546250Y38750D02*
X546100Y38100D01*
X608750Y38750D02*
X609600Y38100D01*
X370000Y320000D02*
X396250Y346250D01*
X470000Y346250D01*
X488750Y365000D01*
X370000Y320000D02*
X368300Y314300D01*
X488750Y365000D02*
X489700Y365000D01*
X242500Y185000D02*
X242500Y35000D01*
X242500Y185000D02*
X368750Y311250D01*
X242500Y35000D02*
X241300Y34900D01*
X368750Y311250D02*
X368300Y314300D01*
D15*
X166250Y237500D02*
X166250Y35000D01*
X166250Y237500D02*
X228750Y300000D01*
X228750Y360000D01*
X233750Y365000D01*
X166250Y35000D02*
X165100Y34900D01*
X233750Y365000D02*
X234200Y365000D01*
X546250Y63750D02*
X608750Y63750D01*
X609600Y63500D01*
X546250Y63750D02*
X546100Y63500D01*
X596250Y228750D02*
X596250Y292500D01*
X546250Y342500D01*
X596250Y228750D02*
X596900Y228600D01*
X546250Y342500D02*
X546100Y342900D01*
X191250Y237500D02*
X191250Y35000D01*
X191250Y237500D02*
X253750Y300000D01*
X253750Y343750D01*
X292500Y382500D01*
X406250Y382500D01*
X423750Y365000D01*
X191250Y35000D02*
X190500Y34900D01*
X423750Y365000D02*
X424700Y365000D01*
X50000Y22500D02*
X38750Y33750D01*
X50000Y22500D02*
X50000Y21250D01*
X57500Y13750D01*
X246250Y13750D01*
X266250Y33750D01*
X38750Y33750D02*
X38100Y34900D01*
X266250Y33750D02*
X266700Y34900D01*
X138750Y140000D02*
X138750Y313750D01*
X138750Y140000D02*
X40000Y41250D01*
X40000Y36250D01*
X138750Y313750D02*
X139700Y314300D01*
X40000Y36250D02*
X38100Y34900D01*
M02*
