M48
;GenerationSoftware,Autodesk,EAGLE,9.6.2*%
;CreationDate,2021-08-03T19:36:16Z*%
FMAT,2
ICI,OFF
METRIC,TZ,000.000
T4C0.813
T3C1.000
T2C1.016
T1C1.300
%
G90
M71
T1
X42470Y36500
X48970Y36500
X23420Y36500
X29920Y36500
X3100Y36500
X9600Y36500
T2
X54610Y31750
X54610Y34290
X54610Y36830
X60960Y3810
X60960Y6350
X60960Y8890
X60960Y31750
X60960Y34290
X60960Y36830
X54610Y3810
X54610Y6350
X54610Y8890
T3
X31750Y3490
X34290Y3490
X36830Y3490
X39370Y3490
X39370Y31430
X36830Y31430
X34290Y31430
X31750Y31430
X29210Y31430
X26670Y31430
X24130Y31430
X21590Y31430
X19050Y31430
X16510Y31430
X13970Y31430
X11430Y31430
X8890Y31430
X6350Y31430
X3810Y31430
X3810Y3490
X6350Y3490
X8890Y3490
X11430Y3490
X13970Y3490
X16510Y3490
X19050Y3490
X21590Y3490
X24130Y3490
X26670Y3490
X29210Y3490
T4
X54610Y22860
X59690Y22860
X54610Y17780
X59690Y17780
M30